<svg width="16" height="16" viewBox="0 0 16 16" fill="none" xmlns="http://www.w3.org/2000/svg">
<g clip-path="url(#clip0_46_229)">
<g clip-path="url(#clip1_46_229)">
<path d="M1.12175 10.0192C0.871098 11.0327 0.743928 12.143 1.09595 13.1285C1.32817 13.7526 1.7576 14.3599 2.39898 14.507C3.23388 14.4493 4.32496 12.2063 4.61063 11.4332C4.78388 10.9116 5.534 11.0029 5.60035 11.5282C5.60772 11.558 5.62062 11.6474 5.62615 11.6791C5.73305 12.3218 5.87312 12.9962 6.10166 13.5998C6.23436 13.8941 6.32467 14.1587 6.55873 14.3189C6.57348 14.3226 6.57532 14.3319 6.59191 14.3301C6.59375 14.3338 6.59928 14.3301 6.60297 14.3301C6.71539 14.3152 6.88311 14.1773 6.97526 14.0842C7.45998 13.5979 7.87835 12.8248 8.2101 12.1653L8.38887 11.8002C8.37597 11.8188 8.47918 11.6064 8.60451 11.5096C8.73168 11.3978 8.89203 11.327 9.05053 11.3084C9.41914 11.2525 9.80433 11.4835 9.94625 11.8281C9.96283 11.8561 9.99601 11.9287 10.0126 11.9585C10.3038 12.523 10.6282 13.1303 11.1405 13.4992C11.9183 14.0711 12.7514 12.4243 13.0499 11.817C13.2656 11.3568 13.4554 10.8594 13.5881 10.3844C13.942 9.27219 15.5528 9.76587 15.2247 10.8948C15.0294 11.4872 14.7935 12.0275 14.5133 12.564C14.0654 13.3949 13.5218 14.2574 12.6703 14.7977C10.7388 15.9415 9.38043 14.0134 8.71878 12.3945C8.8054 12.5975 9.19981 12.7838 9.47443 12.5323C9.54631 12.4802 9.6145 12.3311 9.57211 12.4131L9.36753 12.7894C8.73168 13.8736 7.45445 16.2526 5.89524 15.269C5.22437 14.7492 5.0032 13.7973 4.84654 13.1136C4.75623 12.6981 4.69173 12.2473 4.63828 11.8281C4.63828 11.7983 4.61985 11.6977 4.61801 11.6679C4.62906 11.7723 4.69726 11.9101 4.79862 11.9846C5.05849 12.2026 5.46396 12.0386 5.54506 11.776C5.05481 12.8863 3.59512 15.7012 2.14096 15.2727C1.2821 15.0026 0.69048 14.1643 0.443512 13.3539C0.0878045 12.197 0.272109 10.9898 0.600171 9.87019C0.707067 9.52182 1.21575 9.67086 1.12175 10.0211V10.0192Z" fill="#412C71"/>
<path d="M3.37765 8.52702C4.30189 8.52702 5.05113 6.77799 5.05113 4.62045C5.05113 2.4629 4.30189 0.713867 3.37765 0.713867C2.45341 0.713867 1.70416 2.4629 1.70416 4.62045C1.70416 6.77799 2.45341 8.52702 3.37765 8.52702Z" fill="#412C71"/>
<path d="M13.3061 8.9909C14.6558 8.9909 15.75 7.03418 15.75 4.62045C15.75 2.20672 14.6558 0.25 13.3061 0.25C11.9564 0.25 10.8622 2.20672 10.8622 4.62045C10.8622 7.03418 11.9564 8.9909 13.3061 8.9909Z" fill="#412C71"/>
<path d="M7.98156 8.65743C7.83781 8.64253 7.71432 8.54566 7.66456 8.4078L7.33834 7.84706C7.27199 7.66635 7.14113 7.6589 7.0711 7.83961L6.85731 8.24386C6.6859 8.59409 6.43709 8.49908 6.43709 8.49908C6.24542 8.47859 6.12562 8.28671 6.19381 8.10973L7.11718 5.71213C7.18721 5.53143 7.44708 5.53329 7.51343 5.71586L8.38335 8.15444C8.47734 8.41712 8.25986 8.68538 7.97972 8.65557L7.98156 8.65743Z" fill="#412C71"/>
</g>
</g>
<defs>
<clipPath id="clip0_46_229">
<rect width="16" height="16" fill="white"/>
</clipPath>
<clipPath id="clip1_46_229">
<rect width="15.5" height="15.25" fill="white" transform="translate(0.25 0.25)"/>
</clipPath>
</defs>
</svg>
