<svg width="16" height="16" viewBox="0 0 16 16" fill="none" xmlns="http://www.w3.org/2000/svg">
<g id="icon/Figma">
<path id="Union" fill-rule="evenodd" clip-rule="evenodd" d="M5.4401 0H10.56C12.1499 0 13.4401 1.29017 13.4401 2.88002C13.4401 3.99415 12.8065 4.96107 11.8802 5.43998C12.8065 5.9189 13.4401 6.88585 13.4401 7.99998C13.4401 9.58983 12.1499 10.88 10.56 10.88C9.65565 10.88 8.84826 10.4625 8.32014 9.80993V13.12C8.32014 14.7098 7.02996 16 5.4401 16C3.85024 16 2.56006 14.7098 2.56006 13.12C2.56006 12.0058 3.19365 11.0389 4.11996 10.56C3.19365 10.0811 2.56006 9.11411 2.56006 7.99998C2.56006 6.88585 3.19364 5.9189 4.11995 5.43998C3.19365 4.96107 2.56006 3.99415 2.56006 2.88002C2.56006 1.29017 3.85024 0 5.4401 0ZM3.20006 2.88002C3.20006 1.64363 4.2037 0.64 5.4401 0.64H7.67998V5.11996H5.4401L5.43315 5.11997C4.19993 5.11622 3.20006 4.11408 3.20006 2.88002ZM7.68014 7.96952C7.68003 7.97966 7.67998 7.98981 7.67998 7.99998C7.67998 8.01015 7.68003 8.0203 7.68014 8.03044V10.2399H5.44008C4.2037 10.24 3.20006 9.23637 3.20006 7.99998C3.20006 6.76589 4.19997 5.76369 5.43321 5.75997L5.4401 5.75998H7.67998L7.68014 7.96952ZM8.32014 8.02681V7.97315C8.3345 6.75216 9.3276 5.76489 10.5508 5.75998H10.56C10.5623 5.75998 10.5646 5.75998 10.5669 5.75997C11.8001 5.76369 12.8001 6.76589 12.8001 7.99998C12.8001 9.23637 11.7964 10.24 10.56 10.24C9.33257 10.24 8.33453 9.25085 8.32014 8.02681ZM8.75023 5.75998C8.59222 5.88782 8.448 6.03204 8.32014 6.19004V5.75998H8.75023ZM10.567 5.11997C10.5646 5.11996 10.5623 5.11996 10.56 5.11996C10.5565 5.11996 10.553 5.11997 10.5495 5.11998H8.32014V0.64H10.56C11.7964 0.64 12.8001 1.64363 12.8001 2.88002C12.8001 4.11408 11.8002 5.11622 10.567 5.11997ZM5.4401 10.88C4.2037 10.88 3.20006 11.8836 3.20006 13.12C3.20006 14.3564 4.2037 15.36 5.4401 15.36C6.6765 15.36 7.68014 14.3564 7.68014 13.12V10.88H5.4401Z" fill="#412C71"/>
</g>
</svg>
