<svg width="87" height="91" viewBox="0 0 87 91" fill="none" xmlns="http://www.w3.org/2000/svg">
<g id="Logo">
<path id="Vector" d="M83.5541 17.7146C79.8875 23.4907 74.3877 27.796 68.294 30.7341L68.1352 30.4268C75.7963 26.0559 83.019 19.1543 84.7176 10.2089C84.8522 9.14206 85.0007 7.93369 84.507 7.06365L84.4966 7.04639C84.4966 7.04639 84.4966 7.03603 84.4725 7.01532L84.3689 6.91865L83.9684 6.53542C70.7487 -4.58166 25.9386 17.4177 16.6894 29.5982C14.2312 32.5777 12.0699 37.0349 14.604 40.5495C16.8585 43.2701 20.8427 43.4945 24.1778 43.5739H24.7924C26.1285 43.4496 27.04 44.5406 26.6153 45.8112C26.0353 47.8861 25.8627 50.4272 26.9502 52.2777C27.4094 53.0235 28.0205 53.6553 28.8215 53.8935C29.7019 54.035 30.7894 52.4296 31.2969 51.7011C31.9909 50.6378 32.633 49.4708 33.1026 48.2866C33.1337 48.2279 33.1129 48.2625 33.1026 48.2763C33.1095 48.259 33.1475 48.1865 33.2683 47.969C34.1694 46.9505 34.6976 47.7687 34.8254 48.4282C35.0222 49.6607 35.2362 50.9174 35.6471 52.0775C35.837 52.6264 36.0994 53.2237 36.4757 53.6035C36.5516 53.6691 36.669 53.7588 36.7553 53.7519C37.5529 53.5966 38.1674 52.6471 38.7129 51.8979C39.2584 51.0935 39.759 50.1751 40.2113 49.2878L40.3494 49.0116C40.6601 48.2866 41.6544 48.0035 42.3035 48.4661C42.7075 48.7147 42.8732 49.2671 43.0872 49.6607C43.7398 50.8415 44.9033 53.0545 46.4016 52.5505C48.373 51.5907 49.4882 48.694 50.227 46.7019C50.5309 45.39 51.7047 44.4647 53.0719 44.6028L53.7279 44.62C56.3829 44.7305 59.0827 45.3313 61.4788 46.588C63.2223 47.4304 64.8829 48.7596 65.7046 50.6102C66.5194 52.3468 67.0822 54.1731 67.2548 56.11C68.1076 65.3144 58.4267 72.5681 51.5666 77.046C46.519 80.2327 41.2643 83.081 35.7645 85.4011C27.8306 88.5843 19.3512 90.604 10.7718 90.497C7.36758 90.3554 1.94024 89.9066 0.355537 86.3126C-0.248652 84.6899 0.434945 82.8428 1.14961 81.4134C4.45367 75.4268 10.2815 71.1457 16.2233 68.0488C19.22 66.5124 22.3894 65.3386 25.6314 64.4823L25.7246 64.8138C17.8598 67.2582 10.4403 71.6774 5.18214 78.0576C3.72519 79.8978 1.27736 83.3399 2.03346 85.6324C2.74122 86.9996 4.53307 87.5244 6.02801 87.8248C12.4186 88.8398 19.0198 87.3587 25.1618 85.5426C33.0163 83.1708 40.194 79.1141 47.0231 74.65C53.8038 70.0858 63.495 63.1566 62.8908 54.0281C62.6526 51.0728 61.3683 48.3073 58.337 47.351C56.6107 46.7226 54.6704 46.6432 52.8164 46.7606C52.4953 46.7882 52.4366 47.1576 52.3572 47.4062C50.3686 53.455 45.4798 58.4784 41.5163 51.0037C40.2044 53.348 37.8153 57.163 35.2121 54.9361C34.4042 54.1041 34.0555 53.0614 33.7586 52.0084C33.6826 51.7288 33.6136 51.4526 33.5514 51.1729C32.4984 53.0338 31.0414 54.9983 29.4119 55.4022C27.8168 55.6681 26.3944 54.2422 25.6866 53.0062C24.3954 50.6723 24.6681 47.9207 25.3344 45.4556L25.3724 45.3002C25.3793 45.2588 25.3828 45.2622 25.3828 45.2415C25.3931 45.0965 25.2654 44.9688 25.1342 44.9964C22.2617 45.2242 19.22 45.2898 16.427 44.3266C12.7155 43.1148 10.644 39.7727 10.8788 35.9025C11.0307 32.9195 12.4807 30.0643 14.1414 27.6958C25.2101 12.6774 49.6159 2.10585 67.897 0.617818C73.528 0.27602 79.7322 0.493528 84.4518 4.00818C84.9869 4.41903 85.5151 4.93345 85.9709 5.43752C86.0848 5.5411 86.4024 5.94849 86.4956 6.21088C87.8214 9.65304 85.3805 14.8076 83.5541 17.7146Z" fill="#412C71"/>
<path id="Vector_2" d="M30.7345 42.8415C32.4658 42.8415 33.8694 39.6001 33.8694 35.6016C33.8694 31.6031 32.4658 28.3617 30.7345 28.3617C29.0031 28.3617 27.5996 31.6031 27.5996 35.6016C27.5996 39.6001 29.0031 42.8415 30.7345 42.8415Z" fill="#412C71"/>
<path id="Vector_3" d="M49.3329 43.7012C51.8613 43.7012 53.9109 40.0749 53.9109 35.6017C53.9109 31.1284 51.8613 27.5021 49.3329 27.5021C46.8045 27.5021 44.7549 31.1284 44.7549 35.6017C44.7549 40.0749 46.8045 43.7012 49.3329 43.7012Z" fill="#412C71"/>
<path id="Vector_4" d="M39.3587 43.0798C39.0894 43.0521 38.8581 42.8726 38.7649 42.6171L38.1538 41.5779C38.0295 41.243 37.7844 41.2292 37.6532 41.5641L37.2527 42.3133C36.9316 42.9624 36.4655 42.7863 36.4655 42.7863C36.1065 42.7483 35.8821 42.3927 36.0098 42.0647L37.7395 37.6213C37.8707 37.2864 38.3575 37.2899 38.4818 37.6282L40.1114 42.1476C40.2875 42.6344 39.8801 43.1315 39.3553 43.0763L39.3587 43.0798Z" fill="#412C71"/>
</g>
</svg>
