<svg width="16" height="16" viewBox="0 0 16 16" fill="none" xmlns="http://www.w3.org/2000/svg">
<g id="icon/Notion" clip-path="url(#clip0_10_9)">
<path id="Vector" fill-rule="evenodd" clip-rule="evenodd" d="M2.99834 2.84735C3.49342 3.24959 3.67915 3.2189 4.60885 3.15687L13.3735 2.63059C13.5594 2.63059 13.4048 2.44515 13.3428 2.41433L11.8872 1.36203C11.6083 1.14549 11.2367 0.897508 10.5245 0.959543L2.03769 1.57854C1.72818 1.60923 1.66636 1.76399 1.78962 1.88803L2.99834 2.84735ZM3.52455 4.88995V14.1119C3.52455 14.6075 3.77222 14.7929 4.32965 14.7622L13.962 14.2049C14.5197 14.1742 14.5818 13.8333 14.5818 13.4307V4.27067C14.5818 3.86871 14.4272 3.65195 14.0858 3.68289L4.01992 4.27067C3.64843 4.30189 3.52452 4.48771 3.52452 4.88995H3.52455ZM13.0336 5.38463C13.0953 5.66342 13.0336 5.94197 12.7542 5.97331L12.2901 6.06579V12.874C11.8872 13.0906 11.5156 13.2144 11.206 13.2144C10.7102 13.2144 10.5861 13.0595 10.2147 12.5956L7.17895 7.82981V12.4408L8.13959 12.6576C8.13959 12.6576 8.13959 13.2144 7.36455 13.2144L5.22795 13.3383C5.16588 13.2144 5.22795 12.9052 5.44468 12.8432L6.00224 12.6887V6.59203L5.2281 6.53C5.16601 6.2512 5.32064 5.84921 5.75457 5.81802L8.04665 5.66352L11.206 10.4913V6.22051L10.4005 6.12807C10.3386 5.78724 10.5861 5.53976 10.8958 5.50907L13.0336 5.38463ZM1.32513 0.743033L10.1528 0.0929389C11.2368 -3.45781e-05 11.5157 0.0622504 12.1971 0.55718L15.015 2.53774C15.4799 2.87832 15.6349 2.97105 15.6349 3.34231V14.2049C15.6349 14.8856 15.3869 15.2883 14.5198 15.3499L4.26831 15.9689C3.61743 15.9999 3.30766 15.9072 2.9668 15.4737L0.891667 12.7813C0.519867 12.2857 0.365234 11.9149 0.365234 11.4811V1.82577C0.365234 1.26906 0.61331 0.80466 1.32513 0.743033Z" fill="#412C71"/>
</g>
<defs>
<clipPath id="clip0_10_9">
<rect width="16" height="16" fill="white"/>
</clipPath>
</defs>
</svg>
